<svg xmlns="http://www.w3.org/2000/svg" viewBox="0 0 520 120" role="img" aria-label="hero4job logo">
  <defs>
    <linearGradient id="h4jMain" x1="0" y1="0" x2="1" y2="1">
      <stop offset="0%" stop-color="#22c55e"/>
      <stop offset="100%" stop-color="#16a34a"/>
    </linearGradient>
    <linearGradient id="h4jAccent" x1="0" y1="0" x2="1" y2="0">
      <stop offset="0%" stop-color="#4ade80"/>
      <stop offset="100%" stop-color="#22c55e"/>
    </linearGradient>
  </defs>

  <g transform="translate(8 8)">
    <path d="M44 8 L80 24 V54 C80 77 64 93 44 100 C24 93 8 77 8 54 V24 Z" fill="#0f172a"/>
    <path d="M44 12 L76 27 V53 C76 74 62 88 44 95 C26 88 12 74 12 53 V27 Z" fill="url(#h4jMain)"/>
    <path d="M31 62 L42 45 H35 L49 25 L45 42 H53 Z" fill="#052e16"/>
  </g>

  <g transform="translate(102 16)">
    <text x="0" y="63" font-family="Segoe UI, Inter, Arial, sans-serif" font-size="62" font-weight="900" fill="#0f172a" opacity="0.17">hero4job</text>
    <text x="0" y="58" font-family="Segoe UI, Inter, Arial, sans-serif" font-size="62" font-weight="900" fill="url(#h4jMain)" letter-spacing="0.2">hero4job</text>
    <path d="M2 72 C64 90, 166 90, 290 72" fill="none" stroke="url(#h4jAccent)" stroke-width="9" stroke-linecap="round"/>
  </g>
</svg>
